<?xml version="1.0" encoding="utf-8" standalone="no"?>
<!DOCTYPE svg PUBLIC "-//W3C//DTD SVG 1.1//EN"
  "http://www.w3.org/Graphics/SVG/1.1/DTD/svg11.dtd">
<svg xmlns:xlink="http://www.w3.org/1999/xlink" width="558pt" height="554.4pt" viewBox="0 0 558 554.4" xmlns="http://www.w3.org/2000/svg" version="1.1">
 <metadata>
  <rdf:RDF xmlns:dc="http://purl.org/dc/elements/1.1/" xmlns:cc="http://creativecommons.org/ns#" xmlns:rdf="http://www.w3.org/1999/02/22-rdf-syntax-ns#">
   <cc:Work>
    <dc:type rdf:resource="http://purl.org/dc/dcmitype/StillImage"/>
    <dc:date>2023-03-23T18:57:12.036655</dc:date>
    <dc:format>image/svg+xml</dc:format>
    <dc:creator>
     <cc:Agent>
      <dc:title>Matplotlib v3.5.1, https://matplotlib.org/</dc:title>
     </cc:Agent>
    </dc:creator>
   </cc:Work>
  </rdf:RDF>
 </metadata>
 <defs>
  <style type="text/css">*{stroke-linejoin: round; stroke-linecap: butt}</style>
 </defs>
 <g id="figure_1">
  <g id="patch_1">
   <path d="M 0 554.4 
L 558 554.4 
L 558 0 
L 0 0 
z
" style="fill: #ffffff"/>
  </g>
  <g id="axes_1">
   <g id="patch_2">
    <path d="M 0 554.4 
L 558 554.4 
L 558 0 
L 0 0 
z
" style="fill: #ffffff"/>
   </g>
   <g id="LineCollection_1">
    <path d="M 429.810811 277.2 
L 132.571477 241.341458 
" clip-path="url(#p4b54ad86f3)" style="fill: none; stroke: #32cd32; stroke-opacity: 0.611158; stroke-width: 2.968139"/>
    <path d="M 429.810811 277.2 
L 225.521749 137.099188 
" clip-path="url(#p4b54ad86f3)" style="fill: none; stroke: #32cd32; stroke-opacity: 0.66312; stroke-width: 3.233723"/>
    <path d="M 429.810811 277.2 
L 128.189189 277.2 
" clip-path="url(#p4b54ad86f3)" style="fill: none; stroke: #32cd32; stroke-opacity: 0.651238; stroke-width: 3.172995"/>
    <path d="M 429.810811 277.2 
L 332.478251 137.099188 
" clip-path="url(#p4b54ad86f3)" style="fill: none; stroke: #32cd32; stroke-opacity: 0.708563; stroke-width: 3.465991"/>
    <path d="M 429.810811 277.2 
L 225.521749 417.300812 
" clip-path="url(#p4b54ad86f3)" style="fill: none; stroke: #32cd32; stroke-opacity: 0.598775; stroke-width: 2.904849"/>
    <path d="M 429.810811 277.2 
L 193.329695 153.885877 
" clip-path="url(#p4b54ad86f3)" style="fill: none; stroke: #32cd32; stroke-opacity: 0.743385; stroke-width: 3.643967"/>
    <path d="M 429.810811 277.2 
L 297.178234 128.454649 
" clip-path="url(#p4b54ad86f3)" style="fill: none; stroke: #a9a9a9; stroke-opacity: 0.741451; stroke-width: 3.634083"/>
    <path d="M 429.810811 277.2 
L 132.571477 313.058542 
" clip-path="url(#p4b54ad86f3)" style="fill: none; stroke: #32cd32; stroke-opacity: 0.612534; stroke-width: 2.975173"/>
    <path d="M 429.810811 277.2 
L 412.536341 346.833115 
" clip-path="url(#p4b54ad86f3)" style="fill: none; stroke: #32cd32; stroke-opacity: 0.637784; stroke-width: 3.10423"/>
    <path d="M 429.810811 277.2 
L 166.116487 177.839135 
" clip-path="url(#p4b54ad86f3)" style="fill: none; stroke: #32cd32; stroke-opacity: 0.658546; stroke-width: 3.210344"/>
    <path d="M 429.810811 277.2 
L 297.178234 425.945351 
" clip-path="url(#p4b54ad86f3)" style="fill: none; stroke: #a9a9a9; stroke-opacity: 0.825886; stroke-width: 4.06564"/>
    <path d="M 429.810811 277.2 
L 391.883513 177.839135 
" clip-path="url(#p4b54ad86f3)" style="fill: none; stroke: #32cd32; stroke-opacity: 0.84741; stroke-width: 4.175652"/>
    <path d="M 429.810811 277.2 
L 260.821766 425.945351 
" clip-path="url(#p4b54ad86f3)" style="fill: none; stroke: #32cd32; stroke-opacity: 0.713855; stroke-width: 3.493037"/>
    <path d="M 429.810811 277.2 
L 412.536341 207.566885 
" clip-path="url(#p4b54ad86f3)" style="fill: none; stroke: #a9a9a9; stroke-opacity: 0.904306; stroke-width: 4.466454"/>
    <path d="M 429.810811 277.2 
L 364.670305 153.885877 
" clip-path="url(#p4b54ad86f3)" style="fill: none; stroke: #a9a9a9; stroke-opacity: 0.759052; stroke-width: 3.724042"/>
    <path d="M 429.810811 277.2 
L 145.463659 207.566885 
" clip-path="url(#p4b54ad86f3)" style="fill: none; stroke: #32cd32; stroke-opacity: 0.625673; stroke-width: 3.042326"/>
    <path d="M 429.810811 277.2 
L 425.428523 241.341458 
" clip-path="url(#p4b54ad86f3)" style="fill: none; stroke: #a9a9a9; stroke-opacity: 0.965475; stroke-width: 4.779094"/>
    <path d="M 429.810811 277.2 
L 260.821766 128.454649 
" clip-path="url(#p4b54ad86f3)" style="fill: none; stroke: #32cd32; stroke-opacity: 0.699756; stroke-width: 3.420976"/>
    <path d="M 429.810811 277.2 
L 145.463659 346.833115 
" clip-path="url(#p4b54ad86f3)" style="fill: none; stroke: #32cd32; stroke-opacity: 0.688682; stroke-width: 3.364377"/>
    <path d="M 429.810811 277.2 
L 166.116487 376.560865 
" clip-path="url(#p4b54ad86f3)" style="fill: none; stroke: #a9a9a9; stroke-opacity: 0.720547; stroke-width: 3.527241"/>
    <path d="M 425.428523 241.341458 
L 332.478251 137.099188 
" clip-path="url(#p4b54ad86f3)" style="fill: none; stroke: #a9a9a9; stroke-opacity: 0.76904; stroke-width: 3.775094"/>
    <path d="M 425.428523 241.341458 
L 193.329695 400.514123 
" clip-path="url(#p4b54ad86f3)" style="fill: none; stroke: #32cd32; stroke-opacity: 0.625961; stroke-width: 3.043799"/>
    <path d="M 425.428523 241.341458 
L 132.571477 313.058542 
" clip-path="url(#p4b54ad86f3)" style="fill: none; stroke: #32cd32; stroke-opacity: 0.607235; stroke-width: 2.948089"/>
    <path d="M 425.428523 241.341458 
L 260.821766 425.945351 
" clip-path="url(#p4b54ad86f3)" style="fill: none; stroke: #32cd32; stroke-opacity: 0.610162; stroke-width: 2.96305"/>
    <path d="M 425.428523 241.341458 
L 412.536341 207.566885 
" clip-path="url(#p4b54ad86f3)" style="fill: none; stroke: #a9a9a9; stroke-opacity: 0.87306; stroke-width: 4.306749"/>
    <path d="M 425.428523 241.341458 
L 364.670305 153.885877 
" clip-path="url(#p4b54ad86f3)" style="fill: none; stroke: #32cd32; stroke-opacity: 0.802098; stroke-width: 3.944058"/>
    <path d="M 425.428523 241.341458 
L 132.571477 241.341458 
" clip-path="url(#p4b54ad86f3)" style="fill: none; stroke: #32cd32; stroke-opacity: 0.66653; stroke-width: 3.251153"/>
    <path d="M 425.428523 241.341458 
L 225.521749 137.099188 
" clip-path="url(#p4b54ad86f3)" style="fill: none; stroke: #32cd32; stroke-opacity: 0.60212; stroke-width: 2.921947"/>
    <path d="M 425.428523 241.341458 
L 128.189189 277.2 
" clip-path="url(#p4b54ad86f3)" style="fill: none; stroke: #32cd32; stroke-opacity: 0.772326; stroke-width: 3.791887"/>
    <path d="M 425.428523 241.341458 
L 225.521749 417.300812 
" clip-path="url(#p4b54ad86f3)" style="fill: none; stroke: #a9a9a9; stroke-opacity: 0.688033; stroke-width: 3.361058"/>
    <path d="M 425.428523 241.341458 
L 193.329695 153.885877 
" clip-path="url(#p4b54ad86f3)" style="fill: none; stroke: #32cd32; stroke-opacity: 0.697889; stroke-width: 3.411435"/>
    <path d="M 425.428523 241.341458 
L 297.178234 128.454649 
" clip-path="url(#p4b54ad86f3)" style="fill: none; stroke: #a9a9a9; stroke-opacity: 0.807539; stroke-width: 3.971867"/>
    <path d="M 425.428523 241.341458 
L 166.116487 177.839135 
" clip-path="url(#p4b54ad86f3)" style="fill: none; stroke: #32cd32; stroke-opacity: 0.696711; stroke-width: 3.405411"/>
    <path d="M 425.428523 241.341458 
L 297.178234 425.945351 
" clip-path="url(#p4b54ad86f3)" style="fill: none; stroke: #a9a9a9; stroke-opacity: 0.799751; stroke-width: 3.93206"/>
    <path d="M 425.428523 241.341458 
L 391.883513 376.560865 
" clip-path="url(#p4b54ad86f3)" style="fill: none; stroke: #32cd32; stroke-opacity: 0.593111; stroke-width: 2.875903"/>
    <path d="M 425.428523 241.341458 
L 391.883513 177.839135 
" clip-path="url(#p4b54ad86f3)" style="fill: none; stroke: #32cd32; stroke-opacity: 0.679021; stroke-width: 3.314998"/>
    <path d="M 425.428523 241.341458 
L 145.463659 207.566885 
" clip-path="url(#p4b54ad86f3)" style="fill: none; stroke: #32cd32; stroke-opacity: 0.792467; stroke-width: 3.894834"/>
    <path d="M 425.428523 241.341458 
L 145.463659 346.833115 
" clip-path="url(#p4b54ad86f3)" style="fill: none; stroke: #32cd32; stroke-opacity: 0.785322; stroke-width: 3.858311"/>
    <path d="M 425.428523 241.341458 
L 166.116487 376.560865 
" clip-path="url(#p4b54ad86f3)" style="fill: none; stroke: #a9a9a9; stroke-opacity: 0.683333; stroke-width: 3.337034"/>
    <path d="M 425.428523 241.341458 
L 260.821766 128.454649 
" clip-path="url(#p4b54ad86f3)" style="fill: none; stroke: #32cd32; stroke-opacity: 0.593806; stroke-width: 2.879454"/>
    <path d="M 412.536341 207.566885 
L 332.478251 137.099188 
" clip-path="url(#p4b54ad86f3)" style="fill: none; stroke: #32cd32; stroke-opacity: 0.718287; stroke-width: 3.51569"/>
    <path d="M 412.536341 207.566885 
L 193.329695 400.514123 
" clip-path="url(#p4b54ad86f3)" style="fill: none; stroke: #32cd32; stroke-opacity: 0.635775; stroke-width: 3.09396"/>
    <path d="M 412.536341 207.566885 
L 132.571477 313.058542 
" clip-path="url(#p4b54ad86f3)" style="fill: none; stroke: #32cd32; stroke-opacity: 0.670599; stroke-width: 3.271949"/>
    <path d="M 412.536341 207.566885 
L 260.821766 425.945351 
" clip-path="url(#p4b54ad86f3)" style="fill: none; stroke: #32cd32; stroke-opacity: 0.639792; stroke-width: 3.114493"/>
    <path d="M 412.536341 207.566885 
L 225.521749 137.099188 
" clip-path="url(#p4b54ad86f3)" style="fill: none; stroke: #32cd32; stroke-opacity: 0.593244; stroke-width: 2.876581"/>
    <path d="M 412.536341 207.566885 
L 225.521749 417.300812 
" clip-path="url(#p4b54ad86f3)" style="fill: none; stroke: #32cd32; stroke-opacity: 0.613538; stroke-width: 2.980304"/>
    <path d="M 412.536341 207.566885 
L 193.329695 153.885877 
" clip-path="url(#p4b54ad86f3)" style="fill: none; stroke: #32cd32; stroke-opacity: 0.636341; stroke-width: 3.096852"/>
    <path d="M 412.536341 207.566885 
L 297.178234 128.454649 
" clip-path="url(#p4b54ad86f3)" style="fill: none; stroke: #32cd32; stroke-opacity: 0.733593; stroke-width: 3.593921"/>
    <path d="M 412.536341 207.566885 
L 166.116487 177.839135 
" clip-path="url(#p4b54ad86f3)" style="fill: none; stroke: #32cd32; stroke-opacity: 0.684635; stroke-width: 3.343692"/>
    <path d="M 412.536341 207.566885 
L 297.178234 425.945351 
" clip-path="url(#p4b54ad86f3)" style="fill: none; stroke: #a9a9a9; stroke-opacity: 0.848962; stroke-width: 4.183582"/>
    <path d="M 412.536341 207.566885 
L 391.883513 177.839135 
" clip-path="url(#p4b54ad86f3)" style="fill: none; stroke: #32cd32; stroke-opacity: 0.733873; stroke-width: 3.595351"/>
    <path d="M 412.536341 207.566885 
L 145.463659 346.833115 
" clip-path="url(#p4b54ad86f3)" style="fill: none; stroke: #32cd32; stroke-opacity: 0.613334; stroke-width: 2.979265"/>
    <path d="M 412.536341 207.566885 
L 166.116487 376.560865 
" clip-path="url(#p4b54ad86f3)" style="fill: none; stroke: #a9a9a9; stroke-opacity: 0.678465; stroke-width: 3.312156"/>
    <path d="M 412.536341 207.566885 
L 364.670305 153.885877 
" clip-path="url(#p4b54ad86f3)" style="fill: none; stroke: #32cd32; stroke-opacity: 0.719085; stroke-width: 3.519766"/>
    <path d="M 412.536341 207.566885 
L 260.821766 128.454649 
" clip-path="url(#p4b54ad86f3)" style="fill: none; stroke: #32cd32; stroke-opacity: 0.676395; stroke-width: 3.301575"/>
    <path d="M 391.883513 177.839135 
L 225.521749 137.099188 
" clip-path="url(#p4b54ad86f3)" style="fill: none; stroke: #32cd32; stroke-opacity: 0.616739; stroke-width: 2.996665"/>
    <path d="M 391.883513 177.839135 
L 332.478251 137.099188 
" clip-path="url(#p4b54ad86f3)" style="fill: none; stroke: #32cd32; stroke-opacity: 0.634267; stroke-width: 3.086252"/>
    <path d="M 391.883513 177.839135 
L 297.178234 128.454649 
" clip-path="url(#p4b54ad86f3)" style="fill: none; stroke: #32cd32; stroke-opacity: 0.599579; stroke-width: 2.90896"/>
    <path d="M 391.883513 177.839135 
L 166.116487 376.560865 
" clip-path="url(#p4b54ad86f3)" style="fill: none; stroke: #32cd32; stroke-opacity: 0.668734; stroke-width: 3.262419"/>
    <path d="M 391.883513 177.839135 
L 364.670305 153.885877 
" clip-path="url(#p4b54ad86f3)" style="fill: none; stroke: #32cd32; stroke-opacity: 0.605387; stroke-width: 2.938643"/>
    <path d="M 364.670305 153.885877 
L 332.478251 137.099188 
" clip-path="url(#p4b54ad86f3)" style="fill: none; stroke: #32cd32; stroke-opacity: 0.653529; stroke-width: 3.184706"/>
    <path d="M 364.670305 153.885877 
L 297.178234 128.454649 
" clip-path="url(#p4b54ad86f3)" style="fill: none; stroke: #32cd32; stroke-opacity: 0.709793; stroke-width: 3.472276"/>
    <path d="M 364.670305 153.885877 
L 297.178234 425.945351 
" clip-path="url(#p4b54ad86f3)" style="fill: none; stroke: #32cd32; stroke-opacity: 0.7447; stroke-width: 3.650689"/>
    <path d="M 364.670305 153.885877 
L 364.670305 400.514123 
" clip-path="url(#p4b54ad86f3)" style="fill: none; stroke: #32cd32; stroke-opacity: 0.593557; stroke-width: 2.878179"/>
    <path d="M 332.478251 137.099188 
L 132.571477 241.341458 
" clip-path="url(#p4b54ad86f3)" style="fill: none; stroke: #32cd32; stroke-opacity: 0.645098; stroke-width: 3.141613"/>
    <path d="M 332.478251 137.099188 
L 225.521749 417.300812 
" clip-path="url(#p4b54ad86f3)" style="fill: none; stroke: #a9a9a9; stroke-opacity: 0.626806; stroke-width: 3.04812"/>
    <path d="M 332.478251 137.099188 
L 193.329695 153.885877 
" clip-path="url(#p4b54ad86f3)" style="fill: none; stroke: #32cd32; stroke-opacity: 0.623725; stroke-width: 3.03237"/>
    <path d="M 332.478251 137.099188 
L 297.178234 128.454649 
" clip-path="url(#p4b54ad86f3)" style="fill: none; stroke: #a9a9a9; stroke-opacity: 0.663238; stroke-width: 3.234327"/>
    <path d="M 332.478251 137.099188 
L 297.178234 425.945351 
" clip-path="url(#p4b54ad86f3)" style="fill: none; stroke: #a9a9a9; stroke-opacity: 0.895243; stroke-width: 4.420131"/>
    <path d="M 332.478251 137.099188 
L 145.463659 207.566885 
" clip-path="url(#p4b54ad86f3)" style="fill: none; stroke: #32cd32; stroke-opacity: 0.616424; stroke-width: 2.995057"/>
    <path d="M 332.478251 137.099188 
L 145.463659 346.833115 
" clip-path="url(#p4b54ad86f3)" style="fill: none; stroke: #a9a9a9; stroke-opacity: 0.817655; stroke-width: 4.023571"/>
    <path d="M 297.178234 128.454649 
L 225.521749 417.300812 
" clip-path="url(#p4b54ad86f3)" style="fill: none; stroke: #a9a9a9; stroke-opacity: 0.634013; stroke-width: 3.084955"/>
    <path d="M 297.178234 128.454649 
L 193.329695 153.885877 
" clip-path="url(#p4b54ad86f3)" style="fill: none; stroke: #32cd32; stroke-opacity: 0.623523; stroke-width: 3.031339"/>
    <path d="M 297.178234 128.454649 
L 132.571477 241.341458 
" clip-path="url(#p4b54ad86f3)" style="fill: none; stroke: #32cd32; stroke-opacity: 0.656218; stroke-width: 3.198447"/>
    <path d="M 297.178234 128.454649 
L 297.178234 425.945351 
" clip-path="url(#p4b54ad86f3)" style="fill: none; stroke: #a9a9a9; stroke-opacity: 0.881796; stroke-width: 4.351401"/>
    <path d="M 297.178234 128.454649 
L 145.463659 207.566885 
" clip-path="url(#p4b54ad86f3)" style="fill: none; stroke: #32cd32; stroke-opacity: 0.694092; stroke-width: 3.392027"/>
    <path d="M 297.178234 128.454649 
L 145.463659 346.833115 
" clip-path="url(#p4b54ad86f3)" style="fill: none; stroke: #a9a9a9; stroke-opacity: 0.770524; stroke-width: 3.782677"/>
    <path d="M 260.821766 128.454649 
L 128.189189 277.2 
" clip-path="url(#p4b54ad86f3)" style="fill: none; stroke: #32cd32; stroke-opacity: 0.664271; stroke-width: 3.239607"/>
    <path d="M 260.821766 128.454649 
L 193.329695 400.514123 
" clip-path="url(#p4b54ad86f3)" style="fill: none; stroke: #a9a9a9; stroke-opacity: 0.775226; stroke-width: 3.806712"/>
    <path d="M 260.821766 128.454649 
L 132.571477 313.058542 
" clip-path="url(#p4b54ad86f3)" style="fill: none; stroke: #a9a9a9; stroke-opacity: 0.900308; stroke-width: 4.446019"/>
    <path d="M 260.821766 128.454649 
L 412.536341 346.833115 
" clip-path="url(#p4b54ad86f3)" style="fill: none; stroke: #a9a9a9; stroke-opacity: 0.883016; stroke-width: 4.35764"/>
    <path d="M 260.821766 128.454649 
L 166.116487 376.560865 
" clip-path="url(#p4b54ad86f3)" style="fill: none; stroke: #32cd32; stroke-opacity: 0.730663; stroke-width: 3.578946"/>
    <path d="M 225.521749 137.099188 
L 225.521749 417.300812 
" clip-path="url(#p4b54ad86f3)" style="fill: none; stroke: #32cd32; stroke-opacity: 0.621714; stroke-width: 3.022093"/>
    <path d="M 225.521749 137.099188 
L 391.883513 376.560865 
" clip-path="url(#p4b54ad86f3)" style="fill: none; stroke: #32cd32; stroke-opacity: 0.63858; stroke-width: 3.108295"/>
    <path d="M 193.329695 153.885877 
L 225.521749 417.300812 
" clip-path="url(#p4b54ad86f3)" style="fill: none; stroke: #a9a9a9; stroke-opacity: 0.721512; stroke-width: 3.532172"/>
    <path d="M 193.329695 153.885877 
L 132.571477 241.341458 
" clip-path="url(#p4b54ad86f3)" style="fill: none; stroke: #a9a9a9; stroke-opacity: 0.710683; stroke-width: 3.476823"/>
    <path d="M 193.329695 153.885877 
L 297.178234 425.945351 
" clip-path="url(#p4b54ad86f3)" style="fill: none; stroke: #a9a9a9; stroke-opacity: 0.671015; stroke-width: 3.274074"/>
    <path d="M 193.329695 153.885877 
L 145.463659 207.566885 
" clip-path="url(#p4b54ad86f3)" style="fill: none; stroke: #a9a9a9; stroke-opacity: 0.843403; stroke-width: 4.155173"/>
    <path d="M 193.329695 153.885877 
L 145.463659 346.833115 
" clip-path="url(#p4b54ad86f3)" style="fill: none; stroke: #a9a9a9; stroke-opacity: 0.637866; stroke-width: 3.10465"/>
    <path d="M 166.116487 177.839135 
L 425.428523 313.058542 
" clip-path="url(#p4b54ad86f3)" style="fill: none; stroke: #32cd32; stroke-opacity: 0.692689; stroke-width: 3.384853"/>
    <path d="M 166.116487 177.839135 
L 364.670305 400.514123 
" clip-path="url(#p4b54ad86f3)" style="fill: none; stroke: #32cd32; stroke-opacity: 0.765081; stroke-width: 3.754861"/>
    <path d="M 145.463659 207.566885 
L 132.571477 241.341458 
" clip-path="url(#p4b54ad86f3)" style="fill: none; stroke: #a9a9a9; stroke-opacity: 0.842085; stroke-width: 4.148436"/>
    <path d="M 145.463659 207.566885 
L 225.521749 417.300812 
" clip-path="url(#p4b54ad86f3)" style="fill: none; stroke: #a9a9a9; stroke-opacity: 0.760913; stroke-width: 3.733558"/>
    <path d="M 145.463659 207.566885 
L 297.178234 425.945351 
" clip-path="url(#p4b54ad86f3)" style="fill: none; stroke: #a9a9a9; stroke-opacity: 0.677487; stroke-width: 3.307158"/>
    <path d="M 145.463659 207.566885 
L 145.463659 346.833115 
" clip-path="url(#p4b54ad86f3)" style="fill: none; stroke: #a9a9a9; stroke-opacity: 0.65263; stroke-width: 3.180108"/>
    <path d="M 132.571477 241.341458 
L 297.178234 425.945351 
" clip-path="url(#p4b54ad86f3)" style="fill: none; stroke: #a9a9a9; stroke-opacity: 0.648667; stroke-width: 3.159855"/>
    <path d="M 132.571477 241.341458 
L 145.463659 346.833115 
" clip-path="url(#p4b54ad86f3)" style="fill: none; stroke: #a9a9a9; stroke-opacity: 0.645009; stroke-width: 3.141158"/>
    <path d="M 132.571477 241.341458 
L 225.521749 417.300812 
" clip-path="url(#p4b54ad86f3)" style="fill: none; stroke: #a9a9a9; stroke-opacity: 0.678627; stroke-width: 3.312983"/>
    <path d="M 128.189189 277.2 
L 412.536341 346.833115 
" clip-path="url(#p4b54ad86f3)" style="fill: none; stroke: #a9a9a9; stroke-opacity: 0.758228; stroke-width: 3.71983"/>
    <path d="M 128.189189 277.2 
L 166.116487 376.560865 
" clip-path="url(#p4b54ad86f3)" style="fill: none; stroke: #32cd32; stroke-opacity: 0.69303; stroke-width: 3.386596"/>
    <path d="M 132.571477 313.058542 
L 332.478251 417.300812 
" clip-path="url(#p4b54ad86f3)" style="fill: none; stroke: #32cd32; stroke-opacity: 0.637267; stroke-width: 3.101587"/>
    <path d="M 132.571477 313.058542 
L 193.329695 400.514123 
" clip-path="url(#p4b54ad86f3)" style="fill: none; stroke: #a9a9a9; stroke-opacity: 0.905354; stroke-width: 4.471812"/>
    <path d="M 145.463659 346.833115 
L 225.521749 417.300812 
" clip-path="url(#p4b54ad86f3)" style="fill: none; stroke: #a9a9a9; stroke-opacity: 0.727572; stroke-width: 3.563143"/>
    <path d="M 145.463659 346.833115 
L 297.178234 425.945351 
" clip-path="url(#p4b54ad86f3)" style="fill: none; stroke: #a9a9a9; stroke-opacity: 0.939735; stroke-width: 4.647534"/>
    <path d="M 193.329695 400.514123 
L 332.478251 417.300812 
" clip-path="url(#p4b54ad86f3)" style="fill: none; stroke: #32cd32; stroke-opacity: 0.787327; stroke-width: 3.868558"/>
    <path d="M 225.521749 417.300812 
L 297.178234 425.945351 
" clip-path="url(#p4b54ad86f3)" style="fill: none; stroke: #a9a9a9; stroke-opacity: 0.668814; stroke-width: 3.262826"/>
   </g>
   <g id="matplotlib.axis_1">
    <g id="xtick_1"/>
    <g id="xtick_2"/>
    <g id="xtick_3"/>
    <g id="xtick_4"/>
    <g id="xtick_5"/>
    <g id="xtick_6"/>
    <g id="xtick_7"/>
   </g>
   <g id="matplotlib.axis_2">
    <g id="ytick_1"/>
    <g id="ytick_2"/>
    <g id="ytick_3"/>
    <g id="ytick_4"/>
    <g id="ytick_5"/>
    <g id="ytick_6"/>
    <g id="ytick_7"/>
   </g>
   <g id="PathCollection_1">
    <path d="M 429.810811 292.220888 
C 433.794397 292.220888 437.615362 290.638192 440.432183 287.821372 
C 443.249003 285.004551 444.831699 281.183586 444.831699 277.2 
C 444.831699 273.216414 443.249003 269.395449 440.432183 266.578628 
C 437.615362 263.761808 433.794397 262.179112 429.810811 262.179112 
C 425.827225 262.179112 422.00626 263.761808 419.189439 266.578628 
C 416.372618 269.395449 414.789923 273.216414 414.789923 277.2 
C 414.789923 281.183586 416.372618 285.004551 419.189439 287.821372 
C 422.00626 290.638192 425.827225 292.220888 429.810811 292.220888 
z
" clip-path="url(#p4b54ad86f3)" style="fill: #fa8072; stroke: #fa8072"/>
    <path d="M 425.428523 248.958346 
C 427.448545 248.958346 429.386104 248.155783 430.814476 246.727411 
C 432.242847 245.29904 433.045411 243.361481 433.045411 241.341458 
C 433.045411 239.321436 432.242847 237.383877 430.814476 235.955505 
C 429.386104 234.527134 427.448545 233.72457 425.428523 233.72457 
C 423.4085 233.72457 421.470941 234.527134 420.04257 235.955505 
C 418.614198 237.383877 417.811635 239.321436 417.811635 241.341458 
C 417.811635 243.361481 418.614198 245.29904 420.04257 246.727411 
C 421.470941 248.155783 423.4085 248.958346 425.428523 248.958346 
z
" clip-path="url(#p4b54ad86f3)" style="fill: #a9a9a9; stroke: #a9a9a9"/>
    <path d="M 412.536341 224.497548 
C 417.026405 224.497548 421.333173 222.713626 424.508128 219.538671 
C 427.683083 216.363716 429.467004 212.056949 429.467004 207.566885 
C 429.467004 203.07682 427.683083 198.770053 424.508128 195.595098 
C 421.333173 192.420143 417.026405 190.636222 412.536341 190.636222 
C 408.046277 190.636222 403.73951 192.420143 400.564555 195.595098 
C 397.3896 198.770053 395.605678 203.07682 395.605678 207.566885 
C 395.605678 212.056949 397.3896 216.363716 400.564555 219.538671 
C 403.73951 222.713626 408.046277 224.497548 412.536341 224.497548 
z
" clip-path="url(#p4b54ad86f3)" style="fill: #fa8072; stroke: #fa8072"/>
    <path d="M 391.883513 181.001412 
C 392.722159 181.001412 393.526569 180.668215 394.119581 180.075203 
C 394.712593 179.48219 395.04579 178.677781 395.04579 177.839135 
C 395.04579 177.000489 394.712593 176.196079 394.119581 175.603067 
C 393.526569 175.010055 392.722159 174.676857 391.883513 174.676857 
C 391.044867 174.676857 390.240457 175.010055 389.647445 175.603067 
C 389.054433 176.196079 388.721235 177.000489 388.721235 177.839135 
C 388.721235 178.677781 389.054433 179.48219 389.647445 180.075203 
C 390.240457 180.668215 391.044867 181.001412 391.883513 181.001412 
z
" clip-path="url(#p4b54ad86f3)" style="fill: #a9a9a9; stroke: #a9a9a9"/>
    <path d="M 364.670305 166.375813 
C 367.982675 166.375813 371.159824 165.059795 373.502024 162.717595 
C 375.844223 160.375396 377.160241 157.198247 377.160241 153.885877 
C 377.160241 150.573507 375.844223 147.396358 373.502024 145.054158 
C 371.159824 142.711959 367.982675 141.395941 364.670305 141.395941 
C 361.357935 141.395941 358.180786 142.711959 355.838587 145.054158 
C 353.496387 147.396358 352.180369 150.573507 352.180369 153.885877 
C 352.180369 157.198247 353.496387 160.375396 355.838587 162.717595 
C 358.180786 165.059795 361.357935 166.375813 364.670305 166.375813 
z
" clip-path="url(#p4b54ad86f3)" style="fill: #fa8072; stroke: #fa8072"/>
    <path d="M 332.478251 151.713956 
C 336.354132 151.713956 340.07179 150.174052 342.812452 147.433389 
C 345.553114 144.692727 347.093019 140.97507 347.093019 137.099188 
C 347.093019 133.223306 345.553114 129.505649 342.812452 126.764986 
C 340.07179 124.024324 336.354132 122.48442 332.478251 122.48442 
C 328.602369 122.48442 324.884711 124.024324 322.144049 126.764986 
C 319.403387 129.505649 317.863483 133.223306 317.863483 137.099188 
C 317.863483 140.97507 319.403387 144.692727 322.144049 147.433389 
C 324.884711 150.174052 328.602369 151.713956 332.478251 151.713956 
z
" clip-path="url(#p4b54ad86f3)" style="fill: #a9a9a9; stroke: #a9a9a9"/>
    <path d="M 297.178234 140.020062 
C 300.245418 140.020062 303.18739 138.801457 305.356216 136.632631 
C 307.525043 134.463804 308.743647 131.521832 308.743647 128.454649 
C 308.743647 125.387465 307.525043 122.445493 305.356216 120.276667 
C 303.18739 118.107841 300.245418 116.889236 297.178234 116.889236 
C 294.111051 116.889236 291.169079 118.107841 289.000253 120.276667 
C 286.831426 122.445493 285.612821 125.387465 285.612821 128.454649 
C 285.612821 131.521832 286.831426 134.463804 289.000253 136.632631 
C 291.169079 138.801457 294.111051 140.020062 297.178234 140.020062 
z
" clip-path="url(#p4b54ad86f3)" style="fill: #a9a9a9; stroke: #a9a9a9"/>
    <path d="M 260.821766 136.802864 
C 263.035738 136.802864 265.15933 135.923244 266.724845 134.357728 
C 268.29036 132.792213 269.169981 130.668621 269.169981 128.454649 
C 269.169981 126.240676 268.29036 124.117084 266.724845 122.551569 
C 265.15933 120.986054 263.035738 120.106433 260.821766 120.106433 
C 258.607793 120.106433 256.484201 120.986054 254.918686 122.551569 
C 253.353171 124.117084 252.47355 126.240676 252.47355 128.454649 
C 252.47355 130.668621 253.353171 132.792213 254.918686 134.357728 
C 256.484201 135.923244 258.607793 136.802864 260.821766 136.802864 
z
" clip-path="url(#p4b54ad86f3)" style="fill: #a9a9a9; stroke: #a9a9a9"/>
    <path d="M 225.521749 153.277434 
C 229.812271 153.277434 233.927641 151.572792 236.961497 148.538936 
C 239.995354 145.505079 241.699996 141.389709 241.699996 137.099188 
C 241.699996 132.808667 239.995354 128.693297 236.961497 125.65944 
C 233.927641 122.625583 229.812271 120.920941 225.521749 120.920941 
C 221.231228 120.920941 217.115858 122.625583 214.082002 125.65944 
C 211.048145 128.693297 209.343503 132.808667 209.343503 137.099188 
C 209.343503 141.389709 211.048145 145.505079 214.082002 148.538936 
C 217.115858 151.572792 221.231228 153.277434 225.521749 153.277434 
z
" clip-path="url(#p4b54ad86f3)" style="fill: #a9a9a9; stroke: #a9a9a9"/>
    <path d="M 193.329695 163.552451 
C 195.8933 163.552451 198.352252 162.53392 200.164995 160.721177 
C 201.977738 158.908434 202.996269 156.449482 202.996269 153.885877 
C 202.996269 151.322272 201.977738 148.86332 200.164995 147.050577 
C 198.352252 145.237834 195.8933 144.219303 193.329695 144.219303 
C 190.76609 144.219303 188.307138 145.237834 186.494395 147.050577 
C 184.681652 148.86332 183.663121 151.322272 183.663121 153.885877 
C 183.663121 156.449482 184.681652 158.908434 186.494395 160.721177 
C 188.307138 162.53392 190.76609 163.552451 193.329695 163.552451 
z
" clip-path="url(#p4b54ad86f3)" style="fill: #a9a9a9; stroke: #a9a9a9"/>
    <path d="M 166.116487 187.743855 
C 168.74325 187.743855 171.26278 186.700231 173.120182 184.842829 
C 174.977584 182.985428 176.021207 180.465897 176.021207 177.839135 
C 176.021207 175.212372 174.977584 172.692841 173.120182 170.83544 
C 171.26278 168.978038 168.74325 167.934415 166.116487 167.934415 
C 163.489725 167.934415 160.970194 168.978038 159.112792 170.83544 
C 157.255391 172.692841 156.211767 175.212372 156.211767 177.839135 
C 156.211767 180.465897 157.255391 182.985428 159.112792 184.842829 
C 160.970194 186.700231 163.489725 187.743855 166.116487 187.743855 
z
" clip-path="url(#p4b54ad86f3)" style="fill: #fa8072; stroke: #fa8072"/>
    <path d="M 145.463659 224.868958 
C 150.052222 224.868958 154.453468 223.045903 157.698072 219.801298 
C 160.942677 216.556694 162.765733 212.155448 162.765733 207.566885 
C 162.765733 202.978321 160.942677 198.577076 157.698072 195.332471 
C 154.453468 192.087867 150.052222 190.264811 145.463659 190.264811 
C 140.875095 190.264811 136.47385 192.087867 133.229245 195.332471 
C 129.984641 198.577076 128.161585 202.978321 128.161585 207.566885 
C 128.161585 212.155448 129.984641 216.556694 133.229245 219.801298 
C 136.47385 223.045903 140.875095 224.868958 145.463659 224.868958 
z
" clip-path="url(#p4b54ad86f3)" style="fill: #a9a9a9; stroke: #a9a9a9"/>
    <path d="M 132.571477 250.607617 
C 135.028891 250.607617 137.385987 249.631276 139.123641 247.893622 
C 140.861295 246.155968 141.837636 243.798872 141.837636 241.341458 
C 141.837636 238.884044 140.861295 236.526949 139.123641 234.789294 
C 137.385987 233.05164 135.028891 232.075299 132.571477 232.075299 
C 130.114063 232.075299 127.756968 233.05164 126.019313 234.789294 
C 124.281659 236.526949 123.305318 238.884044 123.305318 241.341458 
C 123.305318 243.798872 124.281659 246.155968 126.019313 247.893622 
C 127.756968 249.631276 130.114063 250.607617 132.571477 250.607617 
z
" clip-path="url(#p4b54ad86f3)" style="fill: #a9a9a9; stroke: #a9a9a9"/>
    <path d="M 128.189189 293.560308 
C 132.527994 293.560308 136.689676 291.836483 139.757674 288.768485 
C 142.825672 285.700487 144.549497 281.538804 144.549497 277.2 
C 144.549497 272.861196 142.825672 268.699513 139.757674 265.631515 
C 136.689676 262.563517 132.527994 260.839692 128.189189 260.839692 
C 123.850385 260.839692 119.688702 262.563517 116.620704 265.631515 
C 113.552706 268.699513 111.828881 272.861196 111.828881 277.2 
C 111.828881 281.538804 113.552706 285.700487 116.620704 288.768485 
C 119.688702 291.836483 123.850385 293.560308 128.189189 293.560308 
z
" clip-path="url(#p4b54ad86f3)" style="fill: #a9a9a9; stroke: #a9a9a9"/>
    <path d="M 132.571477 318.420348 
C 133.993445 318.420348 135.357364 317.855394 136.362847 316.849911 
C 137.36833 315.844428 137.933283 314.480509 137.933283 313.058542 
C 137.933283 311.636574 137.36833 310.272655 136.362847 309.267172 
C 135.357364 308.261689 133.993445 307.696736 132.571477 307.696736 
C 131.14951 307.696736 129.785591 308.261689 128.780108 309.267172 
C 127.774625 310.272655 127.209671 311.636574 127.209671 313.058542 
C 127.209671 314.480509 127.774625 315.844428 128.780108 316.849911 
C 129.785591 317.855394 131.14951 318.420348 132.571477 318.420348 
z
" clip-path="url(#p4b54ad86f3)" style="fill: #fa8072; stroke: #fa8072"/>
    <path d="M 145.463659 352.538854 
C 146.976838 352.538854 148.428246 351.937661 149.498225 350.867682 
C 150.568205 349.797702 151.169397 348.346295 151.169397 346.833115 
C 151.169397 345.319936 150.568205 343.868528 149.498225 342.798549 
C 148.428246 341.728569 146.976838 341.127377 145.463659 341.127377 
C 143.950479 341.127377 142.499072 341.728569 141.429092 342.798549 
C 140.359113 343.868528 139.75792 345.319936 139.75792 346.833115 
C 139.75792 348.346295 140.359113 349.797702 141.429092 350.867682 
C 142.499072 351.937661 143.950479 352.538854 145.463659 352.538854 
z
" clip-path="url(#p4b54ad86f3)" style="fill: #a9a9a9; stroke: #a9a9a9"/>
    <path d="M 166.116487 387.173406 
C 168.930966 387.173406 171.63055 386.055202 173.620687 384.065065 
C 175.610824 382.074928 176.729028 379.375344 176.729028 376.560865 
C 176.729028 373.746387 175.610824 371.046803 173.620687 369.056666 
C 171.63055 367.066529 168.930966 365.948324 166.116487 365.948324 
C 163.302008 365.948324 160.602424 367.066529 158.612287 369.056666 
C 156.62215 371.046803 155.503946 373.746387 155.503946 376.560865 
C 155.503946 379.375344 156.62215 382.074928 158.612287 384.065065 
C 160.602424 386.055202 163.302008 387.173406 166.116487 387.173406 
z
" clip-path="url(#p4b54ad86f3)" style="fill: #a9a9a9; stroke: #a9a9a9"/>
    <path d="M 193.329695 406.028776 
C 194.792198 406.028776 196.194997 405.447717 197.229143 404.413571 
C 198.263289 403.379426 198.844348 401.976626 198.844348 400.514123 
C 198.844348 399.05162 198.263289 397.648821 197.229143 396.614675 
C 196.194997 395.580529 194.792198 394.99947 193.329695 394.99947 
C 191.867192 394.99947 190.464392 395.580529 189.430247 396.614675 
C 188.396101 397.648821 187.815042 399.05162 187.815042 400.514123 
C 187.815042 401.976626 188.396101 403.379426 189.430247 404.413571 
C 190.464392 405.447717 191.867192 406.028776 193.329695 406.028776 
z
" clip-path="url(#p4b54ad86f3)" style="fill: #fa8072; stroke: #fa8072"/>
    <path d="M 225.521749 428.455089 
C 228.479898 428.455089 231.317287 427.279804 233.409014 425.188077 
C 235.500741 423.09635 236.676026 420.258961 236.676026 417.300812 
C 236.676026 414.342663 235.500741 411.505274 233.409014 409.413547 
C 231.317287 407.32182 228.479898 406.146535 225.521749 406.146535 
C 222.563601 406.146535 219.726212 407.32182 217.634485 409.413547 
C 215.542758 411.505274 214.367473 414.342663 214.367473 417.300812 
C 214.367473 420.258961 215.542758 423.09635 217.634485 425.188077 
C 219.726212 427.279804 222.563601 428.455089 225.521749 428.455089 
z
" clip-path="url(#p4b54ad86f3)" style="fill: #a9a9a9; stroke: #a9a9a9"/>
    <path d="M 260.821766 434.331989 
C 263.045928 434.331989 265.179294 433.44832 266.752014 431.8756 
C 268.324734 430.302879 269.208403 428.169514 269.208403 425.945351 
C 269.208403 423.721189 268.324734 421.587823 266.752014 420.015103 
C 265.179294 418.442383 263.045928 417.558714 260.821766 417.558714 
C 258.597603 417.558714 256.464238 418.442383 254.891517 420.015103 
C 253.318797 421.587823 252.435128 423.721189 252.435128 425.945351 
C 252.435128 428.169514 253.318797 430.302879 254.891517 431.8756 
C 256.464238 433.44832 258.597603 434.331989 260.821766 434.331989 
z
" clip-path="url(#p4b54ad86f3)" style="fill: #a9a9a9; stroke: #a9a9a9"/>
    <path d="M 297.178234 437.732026 
C 300.304097 437.732026 303.302353 436.490108 305.512672 434.279789 
C 307.722991 432.06947 308.964909 429.071214 308.964909 425.945351 
C 308.964909 422.819489 307.722991 419.821232 305.512672 417.610914 
C 303.302353 415.400595 300.304097 414.158677 297.178234 414.158677 
C 294.052372 414.158677 291.054116 415.400595 288.843797 417.610914 
C 286.633478 419.821232 285.39156 422.819489 285.39156 425.945351 
C 285.39156 429.071214 286.633478 432.06947 288.843797 434.279789 
C 291.054116 436.490108 294.052372 437.732026 297.178234 437.732026 
z
" clip-path="url(#p4b54ad86f3)" style="fill: #a9a9a9; stroke: #a9a9a9"/>
    <path d="M 332.478251 427.797883 
C 335.262106 427.797883 337.932317 426.691845 339.9008 424.723362 
C 341.869283 422.754879 342.975321 420.084668 342.975321 417.300812 
C 342.975321 414.516957 341.869283 411.846746 339.9008 409.878262 
C 337.932317 407.909779 335.262106 406.803742 332.478251 406.803742 
C 329.694395 406.803742 327.024184 407.909779 325.055701 409.878262 
C 323.087218 411.846746 321.98118 414.516957 321.98118 417.300812 
C 321.98118 420.084668 323.087218 422.754879 325.055701 424.723362 
C 327.024184 426.691845 329.694395 427.797883 332.478251 427.797883 
z
" clip-path="url(#p4b54ad86f3)" style="fill: #a9a9a9; stroke: #a9a9a9"/>
    <path d="M 364.670305 409.830671 
C 367.141083 409.830671 369.510996 408.849021 371.2581 407.101918 
C 373.005203 405.354814 373.986853 402.984901 373.986853 400.514123 
C 373.986853 398.043346 373.005203 395.673432 371.2581 393.926329 
C 369.510996 392.179225 367.141083 391.197575 364.670305 391.197575 
C 362.199528 391.197575 359.829614 392.179225 358.082511 393.926329 
C 356.335407 395.673432 355.353757 398.043346 355.353757 400.514123 
C 355.353757 402.984901 356.335407 405.354814 358.082511 407.101918 
C 359.829614 408.849021 362.199528 409.830671 364.670305 409.830671 
z
" clip-path="url(#p4b54ad86f3)" style="fill: #fa8072; stroke: #fa8072"/>
    <path d="M 391.883513 394.10268 
C 396.535656 394.10268 400.997887 392.254364 404.287449 388.964801 
C 407.577011 385.675239 409.425327 381.213009 409.425327 376.560865 
C 409.425327 371.908722 407.577011 367.446492 404.287449 364.156929 
C 400.997887 360.867367 396.535656 359.019051 391.883513 359.019051 
C 387.231369 359.019051 382.769139 360.867367 379.479577 364.156929 
C 376.190014 367.446492 374.341698 371.908722 374.341698 376.560865 
C 374.341698 381.213009 376.190014 385.675239 379.479577 388.964801 
C 382.769139 392.254364 387.231369 394.10268 391.883513 394.10268 
z
" clip-path="url(#p4b54ad86f3)" style="fill: #fa8072; stroke: #fa8072"/>
    <path d="M 412.536341 361.9909 
C 416.556233 361.9909 420.412021 360.39378 423.254514 357.551288 
C 426.097006 354.708795 427.694126 350.853007 427.694126 346.833115 
C 427.694126 342.813224 426.097006 338.957435 423.254514 336.114943 
C 420.412021 333.27245 416.556233 331.67533 412.536341 331.67533 
C 408.51645 331.67533 404.660661 333.27245 401.818169 336.114943 
C 398.975676 338.957435 397.378556 342.813224 397.378556 346.833115 
C 397.378556 350.853007 398.975676 354.708795 401.818169 357.551288 
C 404.660661 360.39378 408.51645 361.9909 412.536341 361.9909 
z
" clip-path="url(#p4b54ad86f3)" style="fill: #a9a9a9; stroke: #a9a9a9"/>
    <path d="M 425.428523 323.975432 
C 428.323716 323.975432 431.100719 322.82516 433.14793 320.777949 
C 435.195141 318.730738 436.345413 315.953735 436.345413 313.058542 
C 436.345413 310.163348 435.195141 307.386345 433.14793 305.339134 
C 431.100719 303.291923 428.323716 302.141651 425.428523 302.141651 
C 422.533329 302.141651 419.756326 303.291923 417.709115 305.339134 
C 415.661905 307.386345 414.511632 310.163348 414.511632 313.058542 
C 414.511632 315.953735 415.661905 318.730738 417.709115 320.777949 
C 419.756326 322.82516 422.533329 323.975432 425.428523 323.975432 
z
" clip-path="url(#p4b54ad86f3)" style="fill: #fa8072; stroke: #fa8072"/>
   </g>
   <g id="patch_3">
    <path d="M 0 554.4 
L 0 0 
" style="fill: none; stroke: #000000; stroke-width: 0.8; stroke-linejoin: miter; stroke-linecap: square"/>
   </g>
   <g id="patch_4">
    <path d="M 558 554.4 
L 558 0 
" style="fill: none; stroke: #000000; stroke-width: 0.8; stroke-linejoin: miter; stroke-linecap: square"/>
   </g>
   <g id="patch_5">
    <path d="M 0 554.4 
L 558 554.4 
" style="fill: none; stroke: #000000; stroke-width: 0.8; stroke-linejoin: miter; stroke-linecap: square"/>
   </g>
   <g id="patch_6">
    <path d="M 0 0 
L 558 0 
" style="fill: none; stroke: #000000; stroke-width: 0.8; stroke-linejoin: miter; stroke-linecap: square"/>
   </g>
   <g id="text_1">
    <g clip-path="url(#p4b54ad86f3)">
     <!-- Clostridium -->
     <g transform="translate(189.57128 109.454096)scale(0.12 -0.12)">
      <defs>
       <path id="DejaVuSans-43" d="M 4122 4306 
L 4122 3641 
Q 3803 3938 3442 4084 
Q 3081 4231 2675 4231 
Q 1875 4231 1450 3742 
Q 1025 3253 1025 2328 
Q 1025 1406 1450 917 
Q 1875 428 2675 428 
Q 3081 428 3442 575 
Q 3803 722 4122 1019 
L 4122 359 
Q 3791 134 3420 21 
Q 3050 -91 2638 -91 
Q 1578 -91 968 557 
Q 359 1206 359 2328 
Q 359 3453 968 4101 
Q 1578 4750 2638 4750 
Q 3056 4750 3426 4639 
Q 3797 4528 4122 4306 
z
" transform="scale(0.015625)"/>
       <path id="DejaVuSans-6c" d="M 603 4863 
L 1178 4863 
L 1178 0 
L 603 0 
L 603 4863 
z
" transform="scale(0.015625)"/>
       <path id="DejaVuSans-6f" d="M 1959 3097 
Q 1497 3097 1228 2736 
Q 959 2375 959 1747 
Q 959 1119 1226 758 
Q 1494 397 1959 397 
Q 2419 397 2687 759 
Q 2956 1122 2956 1747 
Q 2956 2369 2687 2733 
Q 2419 3097 1959 3097 
z
M 1959 3584 
Q 2709 3584 3137 3096 
Q 3566 2609 3566 1747 
Q 3566 888 3137 398 
Q 2709 -91 1959 -91 
Q 1206 -91 779 398 
Q 353 888 353 1747 
Q 353 2609 779 3096 
Q 1206 3584 1959 3584 
z
" transform="scale(0.015625)"/>
       <path id="DejaVuSans-73" d="M 2834 3397 
L 2834 2853 
Q 2591 2978 2328 3040 
Q 2066 3103 1784 3103 
Q 1356 3103 1142 2972 
Q 928 2841 928 2578 
Q 928 2378 1081 2264 
Q 1234 2150 1697 2047 
L 1894 2003 
Q 2506 1872 2764 1633 
Q 3022 1394 3022 966 
Q 3022 478 2636 193 
Q 2250 -91 1575 -91 
Q 1294 -91 989 -36 
Q 684 19 347 128 
L 347 722 
Q 666 556 975 473 
Q 1284 391 1588 391 
Q 1994 391 2212 530 
Q 2431 669 2431 922 
Q 2431 1156 2273 1281 
Q 2116 1406 1581 1522 
L 1381 1569 
Q 847 1681 609 1914 
Q 372 2147 372 2553 
Q 372 3047 722 3315 
Q 1072 3584 1716 3584 
Q 2034 3584 2315 3537 
Q 2597 3491 2834 3397 
z
" transform="scale(0.015625)"/>
       <path id="DejaVuSans-74" d="M 1172 4494 
L 1172 3500 
L 2356 3500 
L 2356 3053 
L 1172 3053 
L 1172 1153 
Q 1172 725 1289 603 
Q 1406 481 1766 481 
L 2356 481 
L 2356 0 
L 1766 0 
Q 1100 0 847 248 
Q 594 497 594 1153 
L 594 3053 
L 172 3053 
L 172 3500 
L 594 3500 
L 594 4494 
L 1172 4494 
z
" transform="scale(0.015625)"/>
       <path id="DejaVuSans-72" d="M 2631 2963 
Q 2534 3019 2420 3045 
Q 2306 3072 2169 3072 
Q 1681 3072 1420 2755 
Q 1159 2438 1159 1844 
L 1159 0 
L 581 0 
L 581 3500 
L 1159 3500 
L 1159 2956 
Q 1341 3275 1631 3429 
Q 1922 3584 2338 3584 
Q 2397 3584 2469 3576 
Q 2541 3569 2628 3553 
L 2631 2963 
z
" transform="scale(0.015625)"/>
       <path id="DejaVuSans-69" d="M 603 3500 
L 1178 3500 
L 1178 0 
L 603 0 
L 603 3500 
z
M 603 4863 
L 1178 4863 
L 1178 4134 
L 603 4134 
L 603 4863 
z
" transform="scale(0.015625)"/>
       <path id="DejaVuSans-64" d="M 2906 2969 
L 2906 4863 
L 3481 4863 
L 3481 0 
L 2906 0 
L 2906 525 
Q 2725 213 2448 61 
Q 2172 -91 1784 -91 
Q 1150 -91 751 415 
Q 353 922 353 1747 
Q 353 2572 751 3078 
Q 1150 3584 1784 3584 
Q 2172 3584 2448 3432 
Q 2725 3281 2906 2969 
z
M 947 1747 
Q 947 1113 1208 752 
Q 1469 391 1925 391 
Q 2381 391 2643 752 
Q 2906 1113 2906 1747 
Q 2906 2381 2643 2742 
Q 2381 3103 1925 3103 
Q 1469 3103 1208 2742 
Q 947 2381 947 1747 
z
" transform="scale(0.015625)"/>
       <path id="DejaVuSans-75" d="M 544 1381 
L 544 3500 
L 1119 3500 
L 1119 1403 
Q 1119 906 1312 657 
Q 1506 409 1894 409 
Q 2359 409 2629 706 
Q 2900 1003 2900 1516 
L 2900 3500 
L 3475 3500 
L 3475 0 
L 2900 0 
L 2900 538 
Q 2691 219 2414 64 
Q 2138 -91 1772 -91 
Q 1169 -91 856 284 
Q 544 659 544 1381 
z
M 1991 3584 
L 1991 3584 
z
" transform="scale(0.015625)"/>
       <path id="DejaVuSans-6d" d="M 3328 2828 
Q 3544 3216 3844 3400 
Q 4144 3584 4550 3584 
Q 5097 3584 5394 3201 
Q 5691 2819 5691 2113 
L 5691 0 
L 5113 0 
L 5113 2094 
Q 5113 2597 4934 2840 
Q 4756 3084 4391 3084 
Q 3944 3084 3684 2787 
Q 3425 2491 3425 1978 
L 3425 0 
L 2847 0 
L 2847 2094 
Q 2847 2600 2669 2842 
Q 2491 3084 2119 3084 
Q 1678 3084 1418 2786 
Q 1159 2488 1159 1978 
L 1159 0 
L 581 0 
L 581 3500 
L 1159 3500 
L 1159 2956 
Q 1356 3278 1631 3431 
Q 1906 3584 2284 3584 
Q 2666 3584 2933 3390 
Q 3200 3197 3328 2828 
z
" transform="scale(0.015625)"/>
      </defs>
      <use xlink:href="#DejaVuSans-43"/>
      <use xlink:href="#DejaVuSans-6c" x="69.824219"/>
      <use xlink:href="#DejaVuSans-6f" x="97.607422"/>
      <use xlink:href="#DejaVuSans-73" x="158.789062"/>
      <use xlink:href="#DejaVuSans-74" x="210.888672"/>
      <use xlink:href="#DejaVuSans-72" x="250.097656"/>
      <use xlink:href="#DejaVuSans-69" x="291.210938"/>
      <use xlink:href="#DejaVuSans-64" x="318.994141"/>
      <use xlink:href="#DejaVuSans-69" x="382.470703"/>
      <use xlink:href="#DejaVuSans-75" x="410.253906"/>
      <use xlink:href="#DejaVuSans-6d" x="473.632812"/>
     </g>
    </g>
   </g>
   <g id="text_2">
    <g clip-path="url(#p4b54ad86f3)">
     <!-- Neisseria -->
     <g transform="translate(162.298137 119.395316)scale(0.12 -0.12)">
      <defs>
       <path id="DejaVuSans-4e" d="M 628 4666 
L 1478 4666 
L 3547 763 
L 3547 4666 
L 4159 4666 
L 4159 0 
L 3309 0 
L 1241 3903 
L 1241 0 
L 628 0 
L 628 4666 
z
" transform="scale(0.015625)"/>
       <path id="DejaVuSans-65" d="M 3597 1894 
L 3597 1613 
L 953 1613 
Q 991 1019 1311 708 
Q 1631 397 2203 397 
Q 2534 397 2845 478 
Q 3156 559 3463 722 
L 3463 178 
Q 3153 47 2828 -22 
Q 2503 -91 2169 -91 
Q 1331 -91 842 396 
Q 353 884 353 1716 
Q 353 2575 817 3079 
Q 1281 3584 2069 3584 
Q 2775 3584 3186 3129 
Q 3597 2675 3597 1894 
z
M 3022 2063 
Q 3016 2534 2758 2815 
Q 2500 3097 2075 3097 
Q 1594 3097 1305 2825 
Q 1016 2553 972 2059 
L 3022 2063 
z
" transform="scale(0.015625)"/>
       <path id="DejaVuSans-61" d="M 2194 1759 
Q 1497 1759 1228 1600 
Q 959 1441 959 1056 
Q 959 750 1161 570 
Q 1363 391 1709 391 
Q 2188 391 2477 730 
Q 2766 1069 2766 1631 
L 2766 1759 
L 2194 1759 
z
M 3341 1997 
L 3341 0 
L 2766 0 
L 2766 531 
Q 2569 213 2275 61 
Q 1981 -91 1556 -91 
Q 1019 -91 701 211 
Q 384 513 384 1019 
Q 384 1609 779 1909 
Q 1175 2209 1959 2209 
L 2766 2209 
L 2766 2266 
Q 2766 2663 2505 2880 
Q 2244 3097 1772 3097 
Q 1472 3097 1187 3025 
Q 903 2953 641 2809 
L 641 3341 
Q 956 3463 1253 3523 
Q 1550 3584 1831 3584 
Q 2591 3584 2966 3190 
Q 3341 2797 3341 1997 
z
" transform="scale(0.015625)"/>
      </defs>
      <use xlink:href="#DejaVuSans-4e"/>
      <use xlink:href="#DejaVuSans-65" x="74.804688"/>
      <use xlink:href="#DejaVuSans-69" x="136.328125"/>
      <use xlink:href="#DejaVuSans-73" x="164.111328"/>
      <use xlink:href="#DejaVuSans-73" x="216.210938"/>
      <use xlink:href="#DejaVuSans-65" x="268.310547"/>
      <use xlink:href="#DejaVuSans-72" x="329.833984"/>
      <use xlink:href="#DejaVuSans-69" x="370.947266"/>
      <use xlink:href="#DejaVuSans-61" x="398.730469"/>
     </g>
    </g>
   </g>
   <g id="text_3">
    <g clip-path="url(#p4b54ad86f3)">
     <!-- Providencia -->
     <g transform="translate(111.119149 138.700009)scale(0.12 -0.12)">
      <defs>
       <path id="DejaVuSans-50" d="M 1259 4147 
L 1259 2394 
L 2053 2394 
Q 2494 2394 2734 2622 
Q 2975 2850 2975 3272 
Q 2975 3691 2734 3919 
Q 2494 4147 2053 4147 
L 1259 4147 
z
M 628 4666 
L 2053 4666 
Q 2838 4666 3239 4311 
Q 3641 3956 3641 3272 
Q 3641 2581 3239 2228 
Q 2838 1875 2053 1875 
L 1259 1875 
L 1259 0 
L 628 0 
L 628 4666 
z
" transform="scale(0.015625)"/>
       <path id="DejaVuSans-76" d="M 191 3500 
L 800 3500 
L 1894 563 
L 2988 3500 
L 3597 3500 
L 2284 0 
L 1503 0 
L 191 3500 
z
" transform="scale(0.015625)"/>
       <path id="DejaVuSans-6e" d="M 3513 2113 
L 3513 0 
L 2938 0 
L 2938 2094 
Q 2938 2591 2744 2837 
Q 2550 3084 2163 3084 
Q 1697 3084 1428 2787 
Q 1159 2491 1159 1978 
L 1159 0 
L 581 0 
L 581 3500 
L 1159 3500 
L 1159 2956 
Q 1366 3272 1645 3428 
Q 1925 3584 2291 3584 
Q 2894 3584 3203 3211 
Q 3513 2838 3513 2113 
z
" transform="scale(0.015625)"/>
       <path id="DejaVuSans-63" d="M 3122 3366 
L 3122 2828 
Q 2878 2963 2633 3030 
Q 2388 3097 2138 3097 
Q 1578 3097 1268 2742 
Q 959 2388 959 1747 
Q 959 1106 1268 751 
Q 1578 397 2138 397 
Q 2388 397 2633 464 
Q 2878 531 3122 666 
L 3122 134 
Q 2881 22 2623 -34 
Q 2366 -91 2075 -91 
Q 1284 -91 818 406 
Q 353 903 353 1747 
Q 353 2603 823 3093 
Q 1294 3584 2113 3584 
Q 2378 3584 2631 3529 
Q 2884 3475 3122 3366 
z
" transform="scale(0.015625)"/>
      </defs>
      <use xlink:href="#DejaVuSans-50"/>
      <use xlink:href="#DejaVuSans-72" x="58.552734"/>
      <use xlink:href="#DejaVuSans-6f" x="97.416016"/>
      <use xlink:href="#DejaVuSans-76" x="158.597656"/>
      <use xlink:href="#DejaVuSans-69" x="217.777344"/>
      <use xlink:href="#DejaVuSans-64" x="245.560547"/>
      <use xlink:href="#DejaVuSans-65" x="309.037109"/>
      <use xlink:href="#DejaVuSans-6e" x="370.560547"/>
      <use xlink:href="#DejaVuSans-63" x="433.939453"/>
      <use xlink:href="#DejaVuSans-69" x="488.919922"/>
      <use xlink:href="#DejaVuSans-61" x="516.703125"/>
     </g>
    </g>
   </g>
   <g id="text_4">
    <g clip-path="url(#p4b54ad86f3)">
     <!-- Solobacterium -->
     <g transform="translate(62.328335 166.246255)scale(0.12 -0.12)">
      <defs>
       <path id="DejaVuSans-53" d="M 3425 4513 
L 3425 3897 
Q 3066 4069 2747 4153 
Q 2428 4238 2131 4238 
Q 1616 4238 1336 4038 
Q 1056 3838 1056 3469 
Q 1056 3159 1242 3001 
Q 1428 2844 1947 2747 
L 2328 2669 
Q 3034 2534 3370 2195 
Q 3706 1856 3706 1288 
Q 3706 609 3251 259 
Q 2797 -91 1919 -91 
Q 1588 -91 1214 -16 
Q 841 59 441 206 
L 441 856 
Q 825 641 1194 531 
Q 1563 422 1919 422 
Q 2459 422 2753 634 
Q 3047 847 3047 1241 
Q 3047 1584 2836 1778 
Q 2625 1972 2144 2069 
L 1759 2144 
Q 1053 2284 737 2584 
Q 422 2884 422 3419 
Q 422 4038 858 4394 
Q 1294 4750 2059 4750 
Q 2388 4750 2728 4690 
Q 3069 4631 3425 4513 
z
" transform="scale(0.015625)"/>
       <path id="DejaVuSans-62" d="M 3116 1747 
Q 3116 2381 2855 2742 
Q 2594 3103 2138 3103 
Q 1681 3103 1420 2742 
Q 1159 2381 1159 1747 
Q 1159 1113 1420 752 
Q 1681 391 2138 391 
Q 2594 391 2855 752 
Q 3116 1113 3116 1747 
z
M 1159 2969 
Q 1341 3281 1617 3432 
Q 1894 3584 2278 3584 
Q 2916 3584 3314 3078 
Q 3713 2572 3713 1747 
Q 3713 922 3314 415 
Q 2916 -91 2278 -91 
Q 1894 -91 1617 61 
Q 1341 213 1159 525 
L 1159 0 
L 581 0 
L 581 4863 
L 1159 4863 
L 1159 2969 
z
" transform="scale(0.015625)"/>
      </defs>
      <use xlink:href="#DejaVuSans-53"/>
      <use xlink:href="#DejaVuSans-6f" x="63.476562"/>
      <use xlink:href="#DejaVuSans-6c" x="124.658203"/>
      <use xlink:href="#DejaVuSans-6f" x="152.441406"/>
      <use xlink:href="#DejaVuSans-62" x="213.623047"/>
      <use xlink:href="#DejaVuSans-61" x="277.099609"/>
      <use xlink:href="#DejaVuSans-63" x="338.378906"/>
      <use xlink:href="#DejaVuSans-74" x="393.359375"/>
      <use xlink:href="#DejaVuSans-65" x="432.568359"/>
      <use xlink:href="#DejaVuSans-72" x="494.091797"/>
      <use xlink:href="#DejaVuSans-69" x="535.205078"/>
      <use xlink:href="#DejaVuSans-75" x="562.988281"/>
      <use xlink:href="#DejaVuSans-6d" x="626.367188"/>
     </g>
    </g>
   </g>
   <g id="text_5">
    <g clip-path="url(#p4b54ad86f3)">
     <!-- Vibrio -->
     <g transform="translate(90.933208 200.433167)scale(0.12 -0.12)">
      <defs>
       <path id="DejaVuSans-56" d="M 1831 0 
L 50 4666 
L 709 4666 
L 2188 738 
L 3669 4666 
L 4325 4666 
L 2547 0 
L 1831 0 
z
" transform="scale(0.015625)"/>
      </defs>
      <use xlink:href="#DejaVuSans-56"/>
      <use xlink:href="#DejaVuSans-69" x="66.158203"/>
      <use xlink:href="#DejaVuSans-62" x="93.941406"/>
      <use xlink:href="#DejaVuSans-72" x="157.417969"/>
      <use xlink:href="#DejaVuSans-69" x="198.53125"/>
      <use xlink:href="#DejaVuSans-6f" x="226.314453"/>
     </g>
    </g>
   </g>
   <g id="text_6">
    <g clip-path="url(#p4b54ad86f3)">
     <!-- Shigella -->
     <g transform="translate(63.027199 239.273927)scale(0.12 -0.12)">
      <defs>
       <path id="DejaVuSans-68" d="M 3513 2113 
L 3513 0 
L 2938 0 
L 2938 2094 
Q 2938 2591 2744 2837 
Q 2550 3084 2163 3084 
Q 1697 3084 1428 2787 
Q 1159 2491 1159 1978 
L 1159 0 
L 581 0 
L 581 4863 
L 1159 4863 
L 1159 2956 
Q 1366 3272 1645 3428 
Q 1925 3584 2291 3584 
Q 2894 3584 3203 3211 
Q 3513 2838 3513 2113 
z
" transform="scale(0.015625)"/>
       <path id="DejaVuSans-67" d="M 2906 1791 
Q 2906 2416 2648 2759 
Q 2391 3103 1925 3103 
Q 1463 3103 1205 2759 
Q 947 2416 947 1791 
Q 947 1169 1205 825 
Q 1463 481 1925 481 
Q 2391 481 2648 825 
Q 2906 1169 2906 1791 
z
M 3481 434 
Q 3481 -459 3084 -895 
Q 2688 -1331 1869 -1331 
Q 1566 -1331 1297 -1286 
Q 1028 -1241 775 -1147 
L 775 -588 
Q 1028 -725 1275 -790 
Q 1522 -856 1778 -856 
Q 2344 -856 2625 -561 
Q 2906 -266 2906 331 
L 2906 616 
Q 2728 306 2450 153 
Q 2172 0 1784 0 
Q 1141 0 747 490 
Q 353 981 353 1791 
Q 353 2603 747 3093 
Q 1141 3584 1784 3584 
Q 2172 3584 2450 3431 
Q 2728 3278 2906 2969 
L 2906 3500 
L 3481 3500 
L 3481 434 
z
" transform="scale(0.015625)"/>
      </defs>
      <use xlink:href="#DejaVuSans-53"/>
      <use xlink:href="#DejaVuSans-68" x="63.476562"/>
      <use xlink:href="#DejaVuSans-69" x="126.855469"/>
      <use xlink:href="#DejaVuSans-67" x="154.638672"/>
      <use xlink:href="#DejaVuSans-65" x="218.115234"/>
      <use xlink:href="#DejaVuSans-6c" x="279.638672"/>
      <use xlink:href="#DejaVuSans-6c" x="307.421875"/>
      <use xlink:href="#DejaVuSans-61" x="335.205078"/>
     </g>
    </g>
   </g>
   <g id="text_7">
    <g clip-path="url(#p4b54ad86f3)">
     <!-- Roseburia -->
     <g transform="translate(45.948193 280.51125)scale(0.12 -0.12)">
      <defs>
       <path id="DejaVuSans-52" d="M 2841 2188 
Q 3044 2119 3236 1894 
Q 3428 1669 3622 1275 
L 4263 0 
L 3584 0 
L 2988 1197 
Q 2756 1666 2539 1819 
Q 2322 1972 1947 1972 
L 1259 1972 
L 1259 0 
L 628 0 
L 628 4666 
L 2053 4666 
Q 2853 4666 3247 4331 
Q 3641 3997 3641 3322 
Q 3641 2881 3436 2590 
Q 3231 2300 2841 2188 
z
M 1259 4147 
L 1259 2491 
L 2053 2491 
Q 2509 2491 2742 2702 
Q 2975 2913 2975 3322 
Q 2975 3731 2742 3939 
Q 2509 4147 2053 4147 
L 1259 4147 
z
" transform="scale(0.015625)"/>
      </defs>
      <use xlink:href="#DejaVuSans-52"/>
      <use xlink:href="#DejaVuSans-6f" x="64.982422"/>
      <use xlink:href="#DejaVuSans-73" x="126.164062"/>
      <use xlink:href="#DejaVuSans-65" x="178.263672"/>
      <use xlink:href="#DejaVuSans-62" x="239.787109"/>
      <use xlink:href="#DejaVuSans-75" x="303.263672"/>
      <use xlink:href="#DejaVuSans-72" x="366.642578"/>
      <use xlink:href="#DejaVuSans-69" x="407.755859"/>
      <use xlink:href="#DejaVuSans-61" x="435.539062"/>
     </g>
    </g>
   </g>
   <g id="text_8">
    <g clip-path="url(#p4b54ad86f3)">
     <!-- Filifactor -->
     <g transform="translate(59.417824 321.748573)scale(0.12 -0.12)">
      <defs>
       <path id="DejaVuSans-46" d="M 628 4666 
L 3309 4666 
L 3309 4134 
L 1259 4134 
L 1259 2759 
L 3109 2759 
L 3109 2228 
L 1259 2228 
L 1259 0 
L 628 0 
L 628 4666 
z
" transform="scale(0.015625)"/>
       <path id="DejaVuSans-66" d="M 2375 4863 
L 2375 4384 
L 1825 4384 
Q 1516 4384 1395 4259 
Q 1275 4134 1275 3809 
L 1275 3500 
L 2222 3500 
L 2222 3053 
L 1275 3053 
L 1275 0 
L 697 0 
L 697 3053 
L 147 3053 
L 147 3500 
L 697 3500 
L 697 3744 
Q 697 4328 969 4595 
Q 1241 4863 1831 4863 
L 2375 4863 
z
" transform="scale(0.015625)"/>
      </defs>
      <use xlink:href="#DejaVuSans-46"/>
      <use xlink:href="#DejaVuSans-69" x="50.269531"/>
      <use xlink:href="#DejaVuSans-6c" x="78.052734"/>
      <use xlink:href="#DejaVuSans-69" x="105.835938"/>
      <use xlink:href="#DejaVuSans-66" x="133.619141"/>
      <use xlink:href="#DejaVuSans-61" x="168.824219"/>
      <use xlink:href="#DejaVuSans-63" x="230.103516"/>
      <use xlink:href="#DejaVuSans-74" x="285.083984"/>
      <use xlink:href="#DejaVuSans-6f" x="324.292969"/>
      <use xlink:href="#DejaVuSans-72" x="385.474609"/>
     </g>
    </g>
   </g>
   <g id="text_9">
    <g clip-path="url(#p4b54ad86f3)">
     <!-- Veillonella -->
     <g transform="translate(64.416958 360.589333)scale(0.12 -0.12)">
      <use xlink:href="#DejaVuSans-56"/>
      <use xlink:href="#DejaVuSans-65" x="60.658203"/>
      <use xlink:href="#DejaVuSans-69" x="122.181641"/>
      <use xlink:href="#DejaVuSans-6c" x="149.964844"/>
      <use xlink:href="#DejaVuSans-6c" x="177.748047"/>
      <use xlink:href="#DejaVuSans-6f" x="205.53125"/>
      <use xlink:href="#DejaVuSans-6e" x="266.712891"/>
      <use xlink:href="#DejaVuSans-65" x="330.091797"/>
      <use xlink:href="#DejaVuSans-6c" x="391.615234"/>
      <use xlink:href="#DejaVuSans-6c" x="419.398438"/>
      <use xlink:href="#DejaVuSans-61" x="447.181641"/>
     </g>
    </g>
   </g>
   <g id="text_10">
    <g clip-path="url(#p4b54ad86f3)">
     <!-- Peptostreptococcus -->
     <g transform="translate(31.67396 394.776245)scale(0.12 -0.12)">
      <defs>
       <path id="DejaVuSans-70" d="M 1159 525 
L 1159 -1331 
L 581 -1331 
L 581 3500 
L 1159 3500 
L 1159 2969 
Q 1341 3281 1617 3432 
Q 1894 3584 2278 3584 
Q 2916 3584 3314 3078 
Q 3713 2572 3713 1747 
Q 3713 922 3314 415 
Q 2916 -91 2278 -91 
Q 1894 -91 1617 61 
Q 1341 213 1159 525 
z
M 3116 1747 
Q 3116 2381 2855 2742 
Q 2594 3103 2138 3103 
Q 1681 3103 1420 2742 
Q 1159 2381 1159 1747 
Q 1159 1113 1420 752 
Q 1681 391 2138 391 
Q 2594 391 2855 752 
Q 3116 1113 3116 1747 
z
" transform="scale(0.015625)"/>
      </defs>
      <use xlink:href="#DejaVuSans-50"/>
      <use xlink:href="#DejaVuSans-65" x="56.677734"/>
      <use xlink:href="#DejaVuSans-70" x="118.201172"/>
      <use xlink:href="#DejaVuSans-74" x="181.677734"/>
      <use xlink:href="#DejaVuSans-6f" x="220.886719"/>
      <use xlink:href="#DejaVuSans-73" x="282.068359"/>
      <use xlink:href="#DejaVuSans-74" x="334.167969"/>
      <use xlink:href="#DejaVuSans-72" x="373.376953"/>
      <use xlink:href="#DejaVuSans-65" x="412.240234"/>
      <use xlink:href="#DejaVuSans-70" x="473.763672"/>
      <use xlink:href="#DejaVuSans-74" x="537.240234"/>
      <use xlink:href="#DejaVuSans-6f" x="576.449219"/>
      <use xlink:href="#DejaVuSans-63" x="637.630859"/>
      <use xlink:href="#DejaVuSans-6f" x="692.611328"/>
      <use xlink:href="#DejaVuSans-63" x="753.792969"/>
      <use xlink:href="#DejaVuSans-63" x="808.773438"/>
      <use xlink:href="#DejaVuSans-75" x="863.753906"/>
      <use xlink:href="#DejaVuSans-73" x="927.132812"/>
     </g>
    </g>
   </g>
   <g id="text_11">
    <g clip-path="url(#p4b54ad86f3)">
     <!-- Fusobacterium -->
     <g transform="translate(91.819774 422.322491)scale(0.12 -0.12)">
      <use xlink:href="#DejaVuSans-46"/>
      <use xlink:href="#DejaVuSans-75" x="52.019531"/>
      <use xlink:href="#DejaVuSans-73" x="115.398438"/>
      <use xlink:href="#DejaVuSans-6f" x="167.498047"/>
      <use xlink:href="#DejaVuSans-62" x="228.679688"/>
      <use xlink:href="#DejaVuSans-61" x="292.15625"/>
      <use xlink:href="#DejaVuSans-63" x="353.435547"/>
      <use xlink:href="#DejaVuSans-74" x="408.416016"/>
      <use xlink:href="#DejaVuSans-65" x="447.625"/>
      <use xlink:href="#DejaVuSans-72" x="509.148438"/>
      <use xlink:href="#DejaVuSans-69" x="550.261719"/>
      <use xlink:href="#DejaVuSans-75" x="578.044922"/>
      <use xlink:href="#DejaVuSans-6d" x="641.423828"/>
     </g>
    </g>
   </g>
   <g id="text_12">
    <g clip-path="url(#p4b54ad86f3)">
     <!-- Haemophilus -->
     <g transform="translate(138.960012 441.627184)scale(0.12 -0.12)">
      <defs>
       <path id="DejaVuSans-48" d="M 628 4666 
L 1259 4666 
L 1259 2753 
L 3553 2753 
L 3553 4666 
L 4184 4666 
L 4184 0 
L 3553 0 
L 3553 2222 
L 1259 2222 
L 1259 0 
L 628 0 
L 628 4666 
z
" transform="scale(0.015625)"/>
      </defs>
      <use xlink:href="#DejaVuSans-48"/>
      <use xlink:href="#DejaVuSans-61" x="75.195312"/>
      <use xlink:href="#DejaVuSans-65" x="136.474609"/>
      <use xlink:href="#DejaVuSans-6d" x="197.998047"/>
      <use xlink:href="#DejaVuSans-6f" x="295.410156"/>
      <use xlink:href="#DejaVuSans-70" x="356.591797"/>
      <use xlink:href="#DejaVuSans-68" x="420.068359"/>
      <use xlink:href="#DejaVuSans-69" x="483.447266"/>
      <use xlink:href="#DejaVuSans-6c" x="511.230469"/>
      <use xlink:href="#DejaVuSans-75" x="539.013672"/>
      <use xlink:href="#DejaVuSans-73" x="602.392578"/>
     </g>
    </g>
   </g>
   <g id="text_13">
    <g clip-path="url(#p4b54ad86f3)">
     <!-- Corynebacterium -->
     <g transform="translate(154.13003 451.568404)scale(0.12 -0.12)">
      <defs>
       <path id="DejaVuSans-79" d="M 2059 -325 
Q 1816 -950 1584 -1140 
Q 1353 -1331 966 -1331 
L 506 -1331 
L 506 -850 
L 844 -850 
Q 1081 -850 1212 -737 
Q 1344 -625 1503 -206 
L 1606 56 
L 191 3500 
L 800 3500 
L 1894 763 
L 2988 3500 
L 3597 3500 
L 2059 -325 
z
" transform="scale(0.015625)"/>
      </defs>
      <use xlink:href="#DejaVuSans-43"/>
      <use xlink:href="#DejaVuSans-6f" x="69.824219"/>
      <use xlink:href="#DejaVuSans-72" x="131.005859"/>
      <use xlink:href="#DejaVuSans-79" x="172.119141"/>
      <use xlink:href="#DejaVuSans-6e" x="231.298828"/>
      <use xlink:href="#DejaVuSans-65" x="294.677734"/>
      <use xlink:href="#DejaVuSans-62" x="356.201172"/>
      <use xlink:href="#DejaVuSans-61" x="419.677734"/>
      <use xlink:href="#DejaVuSans-63" x="480.957031"/>
      <use xlink:href="#DejaVuSans-74" x="535.9375"/>
      <use xlink:href="#DejaVuSans-65" x="575.146484"/>
      <use xlink:href="#DejaVuSans-72" x="636.669922"/>
      <use xlink:href="#DejaVuSans-69" x="677.783203"/>
      <use xlink:href="#DejaVuSans-75" x="705.566406"/>
      <use xlink:href="#DejaVuSans-6d" x="768.945312"/>
     </g>
    </g>
   </g>
   <g id="text_14">
    <g clip-path="url(#p4b54ad86f3)">
     <!-- Actinomyces -->
     <g transform="translate(452.432432 280.51125)scale(0.12 -0.12)">
      <defs>
       <path id="DejaVuSans-41" d="M 2188 4044 
L 1331 1722 
L 3047 1722 
L 2188 4044 
z
M 1831 4666 
L 2547 4666 
L 4325 0 
L 3669 0 
L 3244 1197 
L 1141 1197 
L 716 0 
L 50 0 
L 1831 4666 
z
" transform="scale(0.015625)"/>
      </defs>
      <use xlink:href="#DejaVuSans-41"/>
      <use xlink:href="#DejaVuSans-63" x="66.658203"/>
      <use xlink:href="#DejaVuSans-74" x="121.638672"/>
      <use xlink:href="#DejaVuSans-69" x="160.847656"/>
      <use xlink:href="#DejaVuSans-6e" x="188.630859"/>
      <use xlink:href="#DejaVuSans-6f" x="252.009766"/>
      <use xlink:href="#DejaVuSans-6d" x="313.191406"/>
      <use xlink:href="#DejaVuSans-79" x="410.603516"/>
      <use xlink:href="#DejaVuSans-63" x="469.783203"/>
      <use xlink:href="#DejaVuSans-65" x="524.763672"/>
      <use xlink:href="#DejaVuSans-73" x="586.287109"/>
     </g>
    </g>
   </g>
   <g id="text_15">
    <g clip-path="url(#p4b54ad86f3)">
     <!-- Granulicatella -->
     <g transform="translate(447.392801 239.273927)scale(0.12 -0.12)">
      <defs>
       <path id="DejaVuSans-47" d="M 3809 666 
L 3809 1919 
L 2778 1919 
L 2778 2438 
L 4434 2438 
L 4434 434 
Q 4069 175 3628 42 
Q 3188 -91 2688 -91 
Q 1594 -91 976 548 
Q 359 1188 359 2328 
Q 359 3472 976 4111 
Q 1594 4750 2688 4750 
Q 3144 4750 3555 4637 
Q 3966 4525 4313 4306 
L 4313 3634 
Q 3963 3931 3569 4081 
Q 3175 4231 2741 4231 
Q 1884 4231 1454 3753 
Q 1025 3275 1025 2328 
Q 1025 1384 1454 906 
Q 1884 428 2741 428 
Q 3075 428 3337 486 
Q 3600 544 3809 666 
z
" transform="scale(0.015625)"/>
      </defs>
      <use xlink:href="#DejaVuSans-47"/>
      <use xlink:href="#DejaVuSans-72" x="77.490234"/>
      <use xlink:href="#DejaVuSans-61" x="118.603516"/>
      <use xlink:href="#DejaVuSans-6e" x="179.882812"/>
      <use xlink:href="#DejaVuSans-75" x="243.261719"/>
      <use xlink:href="#DejaVuSans-6c" x="306.640625"/>
      <use xlink:href="#DejaVuSans-69" x="334.423828"/>
      <use xlink:href="#DejaVuSans-63" x="362.207031"/>
      <use xlink:href="#DejaVuSans-61" x="417.1875"/>
      <use xlink:href="#DejaVuSans-74" x="478.466797"/>
      <use xlink:href="#DejaVuSans-65" x="517.675781"/>
      <use xlink:href="#DejaVuSans-6c" x="579.199219"/>
      <use xlink:href="#DejaVuSans-6c" x="606.982422"/>
      <use xlink:href="#DejaVuSans-61" x="634.765625"/>
     </g>
    </g>
   </g>
   <g id="text_16">
    <g clip-path="url(#p4b54ad86f3)">
     <!-- Gemella -->
     <g transform="translate(432.566792 200.433167)scale(0.12 -0.12)">
      <use xlink:href="#DejaVuSans-47"/>
      <use xlink:href="#DejaVuSans-65" x="77.490234"/>
      <use xlink:href="#DejaVuSans-6d" x="139.013672"/>
      <use xlink:href="#DejaVuSans-65" x="236.425781"/>
      <use xlink:href="#DejaVuSans-6c" x="297.949219"/>
      <use xlink:href="#DejaVuSans-6c" x="325.732422"/>
      <use xlink:href="#DejaVuSans-61" x="353.515625"/>
     </g>
    </g>
   </g>
   <g id="text_17">
    <g clip-path="url(#p4b54ad86f3)">
     <!-- Parvimonas -->
     <g transform="translate(408.81604 166.246255)scale(0.12 -0.12)">
      <use xlink:href="#DejaVuSans-50"/>
      <use xlink:href="#DejaVuSans-61" x="55.802734"/>
      <use xlink:href="#DejaVuSans-72" x="117.082031"/>
      <use xlink:href="#DejaVuSans-76" x="158.195312"/>
      <use xlink:href="#DejaVuSans-69" x="217.375"/>
      <use xlink:href="#DejaVuSans-6d" x="245.158203"/>
      <use xlink:href="#DejaVuSans-6f" x="342.570312"/>
      <use xlink:href="#DejaVuSans-6e" x="403.751953"/>
      <use xlink:href="#DejaVuSans-61" x="467.130859"/>
      <use xlink:href="#DejaVuSans-73" x="528.410156"/>
     </g>
    </g>
   </g>
   <g id="text_18">
    <g clip-path="url(#p4b54ad86f3)">
     <!-- Atopobium -->
     <g transform="translate(377.520851 138.700009)scale(0.12 -0.12)">
      <use xlink:href="#DejaVuSans-41"/>
      <use xlink:href="#DejaVuSans-74" x="66.658203"/>
      <use xlink:href="#DejaVuSans-6f" x="105.867188"/>
      <use xlink:href="#DejaVuSans-70" x="167.048828"/>
      <use xlink:href="#DejaVuSans-6f" x="230.525391"/>
      <use xlink:href="#DejaVuSans-62" x="291.707031"/>
      <use xlink:href="#DejaVuSans-69" x="355.183594"/>
      <use xlink:href="#DejaVuSans-75" x="382.966797"/>
      <use xlink:href="#DejaVuSans-6d" x="446.345703"/>
     </g>
    </g>
   </g>
   <g id="text_19">
    <g clip-path="url(#p4b54ad86f3)">
     <!-- Enterococcus -->
     <g transform="translate(340.499988 119.395316)scale(0.12 -0.12)">
      <defs>
       <path id="DejaVuSans-45" d="M 628 4666 
L 3578 4666 
L 3578 4134 
L 1259 4134 
L 1259 2753 
L 3481 2753 
L 3481 2222 
L 1259 2222 
L 1259 531 
L 3634 531 
L 3634 0 
L 628 0 
L 628 4666 
z
" transform="scale(0.015625)"/>
      </defs>
      <use xlink:href="#DejaVuSans-45"/>
      <use xlink:href="#DejaVuSans-6e" x="63.183594"/>
      <use xlink:href="#DejaVuSans-74" x="126.5625"/>
      <use xlink:href="#DejaVuSans-65" x="165.771484"/>
      <use xlink:href="#DejaVuSans-72" x="227.294922"/>
      <use xlink:href="#DejaVuSans-6f" x="266.158203"/>
      <use xlink:href="#DejaVuSans-63" x="327.339844"/>
      <use xlink:href="#DejaVuSans-6f" x="382.320312"/>
      <use xlink:href="#DejaVuSans-63" x="443.501953"/>
      <use xlink:href="#DejaVuSans-63" x="498.482422"/>
      <use xlink:href="#DejaVuSans-75" x="553.462891"/>
      <use xlink:href="#DejaVuSans-73" x="616.841797"/>
     </g>
    </g>
   </g>
   <g id="text_20">
    <g clip-path="url(#p4b54ad86f3)">
     <!-- Rothia -->
     <g transform="translate(299.90497 109.454096)scale(0.12 -0.12)">
      <use xlink:href="#DejaVuSans-52"/>
      <use xlink:href="#DejaVuSans-6f" x="64.982422"/>
      <use xlink:href="#DejaVuSans-74" x="126.164062"/>
      <use xlink:href="#DejaVuSans-68" x="165.373047"/>
      <use xlink:href="#DejaVuSans-69" x="228.751953"/>
      <use xlink:href="#DejaVuSans-61" x="256.535156"/>
     </g>
    </g>
   </g>
   <g id="text_21">
    <g clip-path="url(#p4b54ad86f3)">
     <!-- Streptococcus -->
     <g transform="translate(299.90497 451.568404)scale(0.12 -0.12)">
      <use xlink:href="#DejaVuSans-53"/>
      <use xlink:href="#DejaVuSans-74" x="63.476562"/>
      <use xlink:href="#DejaVuSans-72" x="102.685547"/>
      <use xlink:href="#DejaVuSans-65" x="141.548828"/>
      <use xlink:href="#DejaVuSans-70" x="203.072266"/>
      <use xlink:href="#DejaVuSans-74" x="266.548828"/>
      <use xlink:href="#DejaVuSans-6f" x="305.757812"/>
      <use xlink:href="#DejaVuSans-63" x="366.939453"/>
      <use xlink:href="#DejaVuSans-6f" x="421.919922"/>
      <use xlink:href="#DejaVuSans-63" x="483.101562"/>
      <use xlink:href="#DejaVuSans-63" x="538.082031"/>
      <use xlink:href="#DejaVuSans-75" x="593.0625"/>
      <use xlink:href="#DejaVuSans-73" x="656.441406"/>
     </g>
    </g>
   </g>
   <g id="text_22">
    <g clip-path="url(#p4b54ad86f3)">
     <!-- Psychrilyobacter -->
     <g transform="translate(340.499988 441.627184)scale(0.12 -0.12)">
      <use xlink:href="#DejaVuSans-50"/>
      <use xlink:href="#DejaVuSans-73" x="58.552734"/>
      <use xlink:href="#DejaVuSans-79" x="110.652344"/>
      <use xlink:href="#DejaVuSans-63" x="169.832031"/>
      <use xlink:href="#DejaVuSans-68" x="224.8125"/>
      <use xlink:href="#DejaVuSans-72" x="288.191406"/>
      <use xlink:href="#DejaVuSans-69" x="329.304688"/>
      <use xlink:href="#DejaVuSans-6c" x="357.087891"/>
      <use xlink:href="#DejaVuSans-79" x="384.871094"/>
      <use xlink:href="#DejaVuSans-6f" x="444.050781"/>
      <use xlink:href="#DejaVuSans-62" x="505.232422"/>
      <use xlink:href="#DejaVuSans-61" x="568.708984"/>
      <use xlink:href="#DejaVuSans-63" x="629.988281"/>
      <use xlink:href="#DejaVuSans-74" x="684.96875"/>
      <use xlink:href="#DejaVuSans-65" x="724.177734"/>
      <use xlink:href="#DejaVuSans-72" x="785.701172"/>
     </g>
    </g>
   </g>
   <g id="text_23">
    <g clip-path="url(#p4b54ad86f3)">
     <!-- Mogibacterium -->
     <g transform="translate(377.520851 422.322491)scale(0.12 -0.12)">
      <defs>
       <path id="DejaVuSans-4d" d="M 628 4666 
L 1569 4666 
L 2759 1491 
L 3956 4666 
L 4897 4666 
L 4897 0 
L 4281 0 
L 4281 4097 
L 3078 897 
L 2444 897 
L 1241 4097 
L 1241 0 
L 628 0 
L 628 4666 
z
" transform="scale(0.015625)"/>
      </defs>
      <use xlink:href="#DejaVuSans-4d"/>
      <use xlink:href="#DejaVuSans-6f" x="86.279297"/>
      <use xlink:href="#DejaVuSans-67" x="147.460938"/>
      <use xlink:href="#DejaVuSans-69" x="210.9375"/>
      <use xlink:href="#DejaVuSans-62" x="238.720703"/>
      <use xlink:href="#DejaVuSans-61" x="302.197266"/>
      <use xlink:href="#DejaVuSans-63" x="363.476562"/>
      <use xlink:href="#DejaVuSans-74" x="418.457031"/>
      <use xlink:href="#DejaVuSans-65" x="457.666016"/>
      <use xlink:href="#DejaVuSans-72" x="519.189453"/>
      <use xlink:href="#DejaVuSans-69" x="560.302734"/>
      <use xlink:href="#DejaVuSans-75" x="588.085938"/>
      <use xlink:href="#DejaVuSans-6d" x="651.464844"/>
     </g>
    </g>
   </g>
   <g id="text_24">
    <g clip-path="url(#p4b54ad86f3)">
     <!-- Leptotrichia -->
     <g transform="translate(408.81604 394.776245)scale(0.12 -0.12)">
      <defs>
       <path id="DejaVuSans-4c" d="M 628 4666 
L 1259 4666 
L 1259 531 
L 3531 531 
L 3531 0 
L 628 0 
L 628 4666 
z
" transform="scale(0.015625)"/>
      </defs>
      <use xlink:href="#DejaVuSans-4c"/>
      <use xlink:href="#DejaVuSans-65" x="53.962891"/>
      <use xlink:href="#DejaVuSans-70" x="115.486328"/>
      <use xlink:href="#DejaVuSans-74" x="178.962891"/>
      <use xlink:href="#DejaVuSans-6f" x="218.171875"/>
      <use xlink:href="#DejaVuSans-74" x="279.353516"/>
      <use xlink:href="#DejaVuSans-72" x="318.5625"/>
      <use xlink:href="#DejaVuSans-69" x="359.675781"/>
      <use xlink:href="#DejaVuSans-63" x="387.458984"/>
      <use xlink:href="#DejaVuSans-68" x="442.439453"/>
      <use xlink:href="#DejaVuSans-69" x="505.818359"/>
      <use xlink:href="#DejaVuSans-61" x="533.601562"/>
     </g>
    </g>
   </g>
   <g id="text_25">
    <g clip-path="url(#p4b54ad86f3)">
     <!-- Ruminococcus -->
     <g transform="translate(432.566792 360.589333)scale(0.12 -0.12)">
      <use xlink:href="#DejaVuSans-52"/>
      <use xlink:href="#DejaVuSans-75" x="64.982422"/>
      <use xlink:href="#DejaVuSans-6d" x="128.361328"/>
      <use xlink:href="#DejaVuSans-69" x="225.773438"/>
      <use xlink:href="#DejaVuSans-6e" x="253.556641"/>
      <use xlink:href="#DejaVuSans-6f" x="316.935547"/>
      <use xlink:href="#DejaVuSans-63" x="378.117188"/>
      <use xlink:href="#DejaVuSans-6f" x="433.097656"/>
      <use xlink:href="#DejaVuSans-63" x="494.279297"/>
      <use xlink:href="#DejaVuSans-63" x="549.259766"/>
      <use xlink:href="#DejaVuSans-75" x="604.240234"/>
      <use xlink:href="#DejaVuSans-73" x="667.619141"/>
     </g>
    </g>
   </g>
   <g id="text_26">
    <g clip-path="url(#p4b54ad86f3)">
     <!-- Bulleidia -->
     <g transform="translate(447.392801 321.748573)scale(0.12 -0.12)">
      <defs>
       <path id="DejaVuSans-42" d="M 1259 2228 
L 1259 519 
L 2272 519 
Q 2781 519 3026 730 
Q 3272 941 3272 1375 
Q 3272 1813 3026 2020 
Q 2781 2228 2272 2228 
L 1259 2228 
z
M 1259 4147 
L 1259 2741 
L 2194 2741 
Q 2656 2741 2882 2914 
Q 3109 3088 3109 3444 
Q 3109 3797 2882 3972 
Q 2656 4147 2194 4147 
L 1259 4147 
z
M 628 4666 
L 2241 4666 
Q 2963 4666 3353 4366 
Q 3744 4066 3744 3513 
Q 3744 3084 3544 2831 
Q 3344 2578 2956 2516 
Q 3422 2416 3680 2098 
Q 3938 1781 3938 1306 
Q 3938 681 3513 340 
Q 3088 0 2303 0 
L 628 0 
L 628 4666 
z
" transform="scale(0.015625)"/>
      </defs>
      <use xlink:href="#DejaVuSans-42"/>
      <use xlink:href="#DejaVuSans-75" x="68.603516"/>
      <use xlink:href="#DejaVuSans-6c" x="131.982422"/>
      <use xlink:href="#DejaVuSans-6c" x="159.765625"/>
      <use xlink:href="#DejaVuSans-65" x="187.548828"/>
      <use xlink:href="#DejaVuSans-69" x="249.072266"/>
      <use xlink:href="#DejaVuSans-64" x="276.855469"/>
      <use xlink:href="#DejaVuSans-69" x="340.332031"/>
      <use xlink:href="#DejaVuSans-61" x="368.115234"/>
     </g>
    </g>
   </g>
  </g>
 </g>
 <defs>
  <clipPath id="p4b54ad86f3">
   <rect x="0" y="0" width="558" height="554.4"/>
  </clipPath>
 </defs>
</svg>
